<!-- 
  Icon: stack-line from Remix Icon
  Source: https://remixicon.com/
  License: Apache 2.0
-->
<svg xmlns="http://www.w3.org/2000/svg" viewBox="0 0 24 24" fill="currentColor">
  <path d="M20.0833 15.1999L21.2854 15.9212C21.5221 16.0633 21.599 16.3704 21.457 16.6072C21.4147 16.6776 21.3557 16.7365 21.2854 16.7788L12.5145 22.0412C12.1979 22.2313 11.8021 22.2313 11.4855 22.0412L2.71463 16.7788C2.47785 16.6368 2.40093 16.3297 2.54301 16.0929C2.58523 16.0225 2.64413 15.9636 2.71463 15.9212L3.91672 15.1999L12.0001 20.0499L20.0833 15.1999ZM20.0833 10.4999L21.2854 11.2212C21.5221 11.3633 21.599 11.6704 21.457 11.9072C21.4147 11.9776 21.3557 12.0365 21.2854 12.0788L12.0001 17.6499L2.71463 12.0788C2.47785 11.9368 2.40093 11.6297 2.54301 11.3929C2.58523 11.3225 2.64413 11.2636 2.71463 11.2212L3.91672 10.4999L12.0001 15.3499L20.0833 10.4999ZM12.5145 1.30864L21.2854 6.57108C21.5221 6.71315 21.599 7.02028 21.457 7.25706C21.4147 7.32756 21.3557 7.38647 21.2854 7.42868L12.0001 12.9999L2.71463 7.42868C2.47785 7.28661 2.40093 6.97948 2.54301 6.7427C2.58523 6.6722 2.64413 6.61329 2.71463 6.57108L11.4855 1.30864C11.8021 1.11864 12.1979 1.11864 12.5145 1.30864ZM12.0001 3.33233L5.88735 6.99988L12.0001 10.6674L18.1128 6.99988L12.0001 3.33233Z" />
</svg>

